# xmcd
#
# Track frame offsets:
#	150
#	19903
#	32418
#	55657
#	70917
#	89169
#	109998
#	125082
#	135831
#	151331
#	161002
#	177056
#	189521
#	203102
#	214999
#
# Disc length: 3026 seconds
#
# Revision: 1
# Processed by: cddbd v1.5.1PL0 Copyright (c) Steve Scherf et al.
# Submitted via: EasyCDDAExtractor 6.5.7.1
#
DISCID=d10bd00f
DTITLE=Various Artist - Entrevero de Vaneira
DYEAR=2000
DGENRE=Country
TTITLE0=Elton Saldanha - Arrasta Pé
TTITLE1=Juliano Volpato - Bailanta de Domingo
TTITLE2=Luiz Carlos Borges - De Véio pra Véio
TTITLE3=Roberto Nunes - Na paz de um Gaitaço
TTITLE4=Telmo de Lima Freitas - Pataquero
TTITLE5=Eduardo Marques - Chimarrão e Canto
TTITLE6=Noel Guarani - Fandango na Fronteira
TTITLE7=Eduardo Gavronski Jr - De te Esperar
TTITLE8=Wilson Paim - A gaita do Negro
TTITLE9=Nenito Saturi - Caminhos do Chinaredo
TTITLE10=Luiz Carlos Borges - Redomona
TTITLE11=Leonir e Terezinha - Eu e a China
TTITLE12=Ribamar e Jorgito - Festa de Casamento
TTITLE13=Dante Ramon Ledesma - Baile da minha Terra
TTITLE14=Dedé Cunha - Dom Reduzino
EXTD=
EXTT0=
EXTT1=
EXTT2=
EXTT3=
EXTT4=
EXTT5=
EXTT6=
EXTT7=
EXTT8=
EXTT9=
EXTT10=
EXTT11=
EXTT12=
EXTT13=
EXTT14=
PLAYORDER=
